<svg width="560" height="128" viewBox="0 0 560 128" fill="none" xmlns="http://www.w3.org/2000/svg" preserveAspectRatio="xMinYMid meet">
  <g transform="translate(10 6)">
    <path
      d="M46 4C38 18 28 28 20 38C11 49 6 61 6 74C6 97 24 116 46 116C68 116 86 97 86 74C86 61 80 49 72 38C64 28 55 18 46 4Z"
      fill="#2FC6D2"
    />
    <path
      d="M46 12C39 24 30 33 23 42C16 51 12 61 12 73C12 92 27 107 46 107C65 107 80 92 80 73C80 61 76 51 69 42C62 33 53 24 46 12Z"
      fill="white"
    />
    <path
      d="M46 26C40 34 33 41 27 48C22 54 19 61 19 70C19 85 31 97 46 97C60 97 72 85 72 70C72 61 69 54 64 48C58 41 52 34 46 26Z"
      fill="#2CC2CC"
    />
    <path
      d="M20 73C23 85 34 94 46 94C56 94 64 89 70 81C65 73 58 67 49 65C37 62 27 66 20 73Z"
      fill="#128FC5"
    />
    <path
      d="M64 34H55V25C55 23 53 21 51 21C49 21 47 23 47 25V34H38C36 34 34 36 34 38C34 40 36 42 38 42H47V51C47 53 49 55 51 55C53 55 55 53 55 51V42H64C66 42 68 40 68 38C68 36 66 34 64 34Z"
      fill="#27B66D"
    />
  </g>
  <text
    x="116"
    y="82"
    font-family="Avenir Next, Avenir, Segoe UI, Helvetica Neue, Arial, sans-serif"
    font-size="64"
    font-weight="700"
    letter-spacing="-0.5"
  >
    <tspan fill="#23B8C5">Chem</tspan><tspan fill="#111827">Check</tspan>
  </text>
</svg>
